HIERARCHY
ROOT Hip
{
  OFFSET 0.0 0.0 0.0
  CHANNELS 6 Xposition Yposition Zposition Xrotation Yrotation Zrotation
  JOINT LowerSpine
  {
    OFFSET 0.0 0.061367 -0.03653
    CHANNELS 3 Xrotation Yrotation Zrotation
    JOINT MiddleSpine
    {
      OFFSET 0.0 0.056002 0.002633
      CHANNELS 3 Xrotation Yrotation Zrotation
      JOINT Chest
      {
        OFFSET 0.0 0.069296 -0.013882
        CHANNELS 3 Xrotation Yrotation Zrotation
        JOINT Neck
        {
          OFFSET 0.0 0.156156 -0.002923
          CHANNELS 3 Xrotation Yrotation Zrotation
          JOINT Head
          {
            OFFSET 0.0 0.088183 0.023986
            CHANNELS 3 Xrotation Yrotation Zrotation
            End Site
            {
              OFFSET 1e-06 0.123215 0.003678
            }
          }
        }
        JOINT LClavicle
        {
          OFFSET 0.014189 0.150698 0.046467
          CHANNELS 3 Xrotation Yrotation Zrotation
          JOINT LShoulder
          {
            OFFSET 0.082893 0.021616 -0.034976
            CHANNELS 3 Xrotation Yrotation Zrotation
            JOINT LForearm
            {
              OFFSET 0.195645 -0.000695 -0.001695
              CHANNELS 3 Xrotation Yrotation Zrotation
              JOINT LHand
              {
                OFFSET 0.163209 0.000474 -0.000977
                CHANNELS 3 Xrotation Yrotation Zrotation
                End Site
                {
                  OFFSET 0.0 0.006864 0.0
                }
              }
            }
          }
        }
        JOINT RClavicle
        {
          OFFSET -0.014189 0.150698 0.046467
          CHANNELS 3 Xrotation Yrotation Zrotation
          JOINT RShoulder
          {
            OFFSET -0.082908 0.021619 -0.034982
            CHANNELS 3 Xrotation Yrotation Zrotation
            JOINT RForearm
            {
              OFFSET -0.195645 -0.000695 -0.001695
              CHANNELS 3 Xrotation Yrotation Zrotation
              JOINT RHand
              {
                OFFSET -0.163209 0.000474 -0.000977
                CHANNELS 3 Xrotation Yrotation Zrotation
                End Site
                {
                  OFFSET 0.0 0.006864 0.0
                }
              }
            }
          }
        }
      }
    }
  }
  JOINT RThigh
  {
    OFFSET -0.072558 0.02774 -0.005953
    CHANNELS 3 Xrotation Yrotation Zrotation
    JOINT RShin
    {
      OFFSET -0.005253 -0.285537 0.0
      CHANNELS 3 Xrotation Yrotation Zrotation
      JOINT RFoot
      {
        OFFSET 0.0 -0.28038 0.0
        CHANNELS 3 Xrotation Yrotation Zrotation
        JOINT RToe
        {
          OFFSET 0.0 -0.030816 0.064441
          CHANNELS 3 Xrotation Yrotation Zrotation
          End Site
          {
            OFFSET 0.0 0.0 0.043231
          }
        }
      }
    }
  }
  JOINT LThigh
  {
    OFFSET 0.072557 0.027741 -0.005953
    CHANNELS 3 Xrotation Yrotation Zrotation
    JOINT LShin
    {
      OFFSET 0.005253 -0.285539 0.0
      CHANNELS 3 Xrotation Yrotation Zrotation
      JOINT LFoot
      {
        OFFSET 0.0 -0.28038 0.0
        CHANNELS 3 Xrotation Yrotation Zrotation
        JOINT LToe
        {
          OFFSET 0.0 -0.030816 0.064441
          CHANNELS 3 Xrotation Yrotation Zrotation
          End Site
          {
            OFFSET 0.0 0.0 0.043231
          }
        }
      }
    }
  }
}
MOTION
Frames: 18
Frame Time: 0.03333333333333333
-0.012166 0.534433 -0.135939 5.056395 0.833244 0.973723 3.041592 -0.53948 -0.44989 -1.207118 1.010348 0.828389 -8.681239 3.706508 1.321499 2.005913 0.319561 0.600504 0.034763 -0.119517 -0.040871 -1.92151 -2.86623 -5.420105 12.403284 -15.414919 -50.203815 9.309623 -53.683945 3.749258 0.057451 0.103679 -0.060263 -2.70136 1.819073 8.803071 2.691481 27.719421 57.806999 3.572144 41.518997 -0.300946 -0.023059 -0.129365 -0.002593 -29.174406 -4.415721 -6.150943 23.86306 -2.758741 4.910661 -3.564046 -0.135739 -0.455278 0.030446 0.214822 0.050368 -20.543234 10.220304 6.243119 14.500184 7.593132 -7.73127 -3.079669 -0.2537 0.090649 0.019516 -0.028968 0.014101 
-0.012855 0.53434 -0.134761 4.744942 0.341142 1.083866 3.097485 -0.544938 -0.427267 -1.230578 1.02301 0.848597 -8.922717 3.854185 1.348058 2.023587 0.335579 0.609293 0.035624 -0.129748 -0.041938 -1.947814 -2.954696 -5.381321 12.436669 -15.811545 -50.312595 9.183292 -53.369892 3.663077 0.058985 0.107246 -0.06138 -2.758984 1.894299 8.719248 2.655166 27.997854 57.81842 3.575794 40.777905 -0.193071 -0.036628 -0.123913 -0.004194 -28.72304 -4.327753 -5.884648 23.692299 -2.635757 4.859615 -3.71762 -0.106365 -0.454246 0.019707 0.218913 0.055409 -20.095072 10.094489 6.182201 14.070202 7.266723 -7.695982 -3.082345 -0.30654 0.088479 0.022933 -0.033658 0.012037 
-0.013915 0.53437 -0.134129 4.472706 -0.17085 1.239574 3.141563 -0.549007 -0.39068 -1.264839 1.023874 0.8704 -9.232012 3.981583 1.286936 2.038577 0.349765 0.618096 0.036666 -0.144235 -0.042856 -1.976938 -3.064488 -5.343167 12.643346 -16.232998 -50.389782 9.174425 -53.03688 3.545723 0.060354 0.110948 -0.062571 -2.813887 1.989726 8.621728 2.747534 28.538818 57.779144 3.72362 39.927826 -0.032957 -0.057714 -0.114238 -0.006309 -28.407562 -4.133939 -5.659249 23.62306 -2.447953 4.764295 -3.885096 -0.091409 -0.459247 0.005222 0.221405 0.061101 -19.750875 10.064082 6.144072 13.621733 6.983331 -7.688993 -3.079737 -0.368518 0.084797 0.028076 -0.039561 0.008974 
-0.015163 0.534542 -0.13356 4.173258 -0.690007 1.429716 3.166251 -0.54982 -0.340964 -1.302775 1.014554 0.88912 -9.515189 4.090798 1.163936 2.040013 0.358782 0.623153 0.037869 -0.161894 -0.04376 -2.009894 -3.184035 -5.318731 13.013748 -16.606106 -50.397713 9.299233 -52.879116 3.470749 0.061403 0.114129 -0.063703 -2.870403 2.10542 8.520438 2.988314 29.154236 57.683002 3.95575 39.352146 0.141715 -0.082691 -0.101709 -0.008511 -28.057663 -3.84337 -5.489587 23.513622 -2.194649 4.631142 -4.017493 -0.075121 -0.462518 -0.010563 0.223106 0.066935 -19.316849 10.166948 6.118261 13.098536 6.778496 -7.706829 -3.075217 -0.440021 0.079786 0.034377 -0.046573 0.004933 
-0.01616 0.534861 -0.133127 3.975477 -1.157454 1.597015 3.178241 -0.550034 -0.285573 -1.343095 0.987299 0.904905 -9.722899 4.142748 1.004481 2.034243 0.369625 0.626527 0.038286 -0.181606 -0.044065 -2.045038 -3.321685 -5.30527 13.40834 -16.962435 -50.287678 9.506148 -53.073086 3.410076 0.063016 0.117844 -0.06598 -2.932305 2.216527 8.429472 3.414337 29.690809 57.513752 4.295795 39.15794 0.359502 -0.108998 -0.087799 -0.010896 -27.823309 -3.500729 -5.366653 23.405766 -1.915921 4.469936 -4.144929 -0.066472 -0.472664 -0.026773 0.22313 0.072651 -18.920397 10.369446 6.107923 12.580039 6.673866 -7.749691 -3.120306 -0.494145 0.082835 0.038898 -0.05384 0.000979 
-0.013267 0.535557 -0.138339 3.946303 -1.706655 1.65118 3.151757 -0.550709 -0.266303 -1.487846 0.896736 0.957204 -10.363677 3.997967 1.180146 2.035386 0.356923 0.632481 0.036615 -0.182426 -0.041962 -2.111738 -3.431456 -5.343997 13.979112 -16.499722 -50.734016 9.193147 -53.408127 3.193838 0.060308 0.112863 -0.061 -2.977628 2.430287 8.300751 4.317999 28.450695 57.473419 4.319252 39.918537 0.669541 -0.117205 -0.070999 -0.010527 -27.63142 -3.754188 -5.332536 23.12742 -2.000681 4.49643 -4.400837 -0.06202 -0.476633 -0.031765 0.213378 0.068259 -18.986246 9.73826 5.571331 11.748099 5.867623 -7.264833 -3.126246 -0.563555 0.061803 0.035638 -0.04917 0.004081 
-0.011589 0.533438 -0.137623 4.118544 -2.304391 1.509293 3.101393 -0.561439 -0.264789 -1.592321 0.830941 1.014726 -10.755956 3.826533 1.392366 2.047113 0.35775 0.63953 0.036559 -0.180826 -0.042337 -2.138416 -3.468163 -5.417804 14.431396 -16.064455 -51.278767 8.99263 -53.224407 3.227162 0.058792 0.110585 -0.057869 -2.979197 2.58148 8.161413 5.15785 26.921106 57.355129 4.453572 42.070225 0.853651 -0.121162 -0.065485 -0.01026 -27.28714 -4.32402 -5.203127 22.88616 -2.319185 4.604136 -4.636066 -0.025255 -0.467517 -0.036933 0.210084 0.06365 -19.635641 8.963602 5.520265 11.516583 5.234519 -6.852782 -3.075131 -0.572372 0.070382 0.037848 -0.048818 0.006427 
-0.015744 0.533256 -0.133248 4.79515 -2.188353 1.115743 3.020228 -0.578345 -0.290203 -1.660703 0.830594 1.056112 -10.998515 3.802276 1.694872 2.074809 0.367278 0.644258 0.03895 -0.173126 -0.043224 -2.150324 -3.427772 -5.632653 14.690852 -15.542649 -52.271183 8.528818 -51.112381 3.371492 0.057802 0.107714 -0.054692 -2.941011 2.669247 8.106981 5.554577 25.113741 57.363728 4.272474 45.694004 0.965617 -0.11874 -0.071798 -0.010186 -27.491415 -5.092184 -4.913852 23.066605 -2.882966 4.823858 -4.870142 -0.039724 -0.48268 -0.039396 0.216273 0.062897 -21.362793 7.901158 5.746573 11.801026 4.668539 -6.256747 -2.973517 -0.508913 0.105192 0.046395 -0.05808 0.005091 
-0.016454 0.531285 -0.139583 5.70512 -1.802777 0.69128 2.96217 -0.601219 -0.348683 -1.751401 0.810738 1.071488 -11.359317 3.590709 1.833049 2.096157 0.380679 0.637193 0.040663 -0.170659 -0.043173 -2.146433 -3.39017 -5.788105 14.660351 -15.380881 -52.951225 7.984564 -49.023598 3.294038 0.061172 0.110409 -0.058002 -2.894715 2.67582 8.070756 5.870302 23.602852 57.658764 4.141242 48.609562 0.947326 -0.11495 -0.082257 -0.011579 -28.727524 -5.71798 -4.552538 23.899618 -3.396081 4.992519 -4.948727 -0.081015 -0.514038 -0.044924 0.227778 0.066208 -23.607466 7.033781 6.030056 12.502806 4.343867 -5.832977 -2.98495 -0.404624 0.154628 0.051769 -0.07074 0.001099 
-0.013636 0.52973 -0.148252 6.546923 -1.57045 0.506936 2.920574 -0.609631 -0.390276 -1.848713 0.772326 1.066052 -11.743073 3.344062 1.864362 2.120263 0.387621 0.633624 0.040281 -0.170315 -0.042319 -2.142877 -3.376618 -5.867079 14.765218 -15.283607 -53.363277 7.683082 -47.863495 3.085874 0.062132 0.109632 -0.058991 -2.860862 2.690583 8.074641 6.165979 22.761875 57.837502 4.038758 49.781902 1.004902 -0.111732 -0.083595 -0.011905 -30.1101 -5.970322 -4.362139 24.721392 -3.678196 5.095861 -5.050372 -0.138584 -0.545693 -0.048464 0.228691 0.066353 -25.631954 6.568765 6.186085 13.142567 4.235068 -5.60106 -3.007903 -0.342475 0.175986 0.053286 -0.075635 -0.000836 
-0.011261 0.527949 -0.154958 7.324386 -1.639453 0.509575 2.892885 -0.6177 -0.415928 -1.969671 0.70717 1.058572 -12.346182 3.150829 1.854894 2.157471 0.39211 0.638233 0.038869 -0.168123 -0.041302 -2.143767 -3.369497 -5.875239 14.916633 -15.148238 -53.628284 7.480349 -47.288803 2.841499 0.060315 0.104599 -0.05682 -2.830362 2.721026 8.083026 6.299554 22.381824 58.015423 3.952397 49.171177 1.04051 -0.110715 -0.076717 -0.011765 -31.784166 -5.931365 -4.188267 25.863432 -3.73308 5.169666 -5.215178 -0.207958 -0.57167 -0.053482 0.221651 0.064958 -27.677208 6.389597 6.213957 13.970016 4.242039 -5.475298 -3.040096 -0.301887 0.177788 0.051498 -0.073277 -0.000477 
-0.010555 0.525669 -0.160961 8.352894 -1.729028 0.495388 2.870182 -0.623011 -0.435478 -2.069889 0.642975 1.020209 -12.970196 2.988194 1.729278 2.183002 0.388754 0.651671 0.036738 -0.162943 -0.039515 -2.130365 -3.30614 -5.856038 14.932541 -15.123656 -53.686062 7.340397 -46.920811 2.628965 0.058556 0.099391 -0.054561 -2.787242 2.706367 8.119268 6.180267 22.511898 58.175186 3.906494 47.194683 0.96465 -0.110077 -0.068652 -0.011463 -34.035282 -5.629658 -3.941502 27.442636 -3.615911 5.213141 -5.324165 -0.267293 -0.579224 -0.057976 0.213223 0.062895 -30.110695 6.384607 6.272926 15.319038 4.425601 -5.541329 -3.05663 -0.264697 0.175454 0.047242 -0.067879 0.000535 
-0.01228 0.52235 -0.1668 9.466679 -1.679948 0.473766 2.87471 -0.627183 -0.459826 -2.138758 0.596131 0.959808 -13.46175 2.891658 1.587595 2.207586 0.387841 0.661157 0.034557 -0.155404 -0.037926 -2.107624 -3.206897 -5.804573 14.723005 -15.292812 -53.677444 7.19525 -46.270618 2.48191 0.057347 0.094547 -0.053119 -2.734254 2.636082 8.176026 5.599294 23.27014 58.356098 3.795573 44.407784 0.772445 -0.10776 -0.065857 -0.01162 -36.52256 -5.20961 -3.643824 29.225201 -3.41833 5.23364 -5.392836 -0.319593 -0.580086 -0.061753 0.208383 0.062086 -32.718304 6.478853 6.462138 16.966228 4.725815 -5.727222 -3.074889 -0.210875 0.177289 0.042067 -0.061809 0.001426 
-0.015217 0.518645 -0.173961 11.134564 -1.528104 0.454767 2.870013 -0.627851 -0.48303 -2.157493 0.563914 0.857445 -13.78416 2.882208 1.402985 2.226558 0.387774 0.663583 0.032451 -0.142516 -0.035724 -2.080966 -3.059424 -5.77992 14.341016 -15.780687 -53.370605 7.214506 -45.48848 2.329097 0.056186 0.088878 -0.052212 -2.663581 2.49142 8.285948 4.62898 24.724382 58.436771 3.689397 40.795128 0.527109 -0.103354 -0.064566 -0.011739 -40.086849 -4.579863 -3.338982 31.59915 -3.168246 5.286838 -5.541277 -0.385193 -0.585186 -0.064787 0.204183 0.06283 -36.356487 6.639092 6.827419 19.460569 5.196202 -6.0941 -3.107407 -0.144355 0.167137 0.034929 -0.053192 0.003337 
-0.017845 0.5154 -0.182013 13.802192 -1.303864 0.421416 2.793218 -0.632932 -0.511691 -2.133169 0.564633 0.718129 -14.001971 2.93638 1.076512 2.156628 0.381495 0.653181 0.031255 -0.11959 -0.035044 -1.971852 -2.813147 -5.715528 13.976462 -16.731745 -52.492702 7.402792 -45.331001 2.068164 0.057201 0.086516 -0.054822 -2.550004 2.262816 8.470065 3.892923 26.565094 58.376766 3.653236 37.170586 0.139187 -0.084101 -0.07653 -0.011662 -45.18676 -3.72679 -3.209572 34.812557 -2.854306 5.360352 -5.845276 -0.472169 -0.595039 -0.064532 0.213243 0.064568 -41.300278 6.82937 7.392751 22.84334 5.967372 -6.666083 -3.124806 -0.11361 0.138839 0.028936 -0.044124 0.008093 
-0.020403 0.512927 -0.189811 17.082041 -0.866261 0.260709 2.645018 -0.633805 -0.505194 -2.052907 0.570004 0.609433 -14.060657 2.925275 0.685042 2.008189 0.377503 0.622837 0.031087 -0.100449 -0.03521 -1.813918 -2.5621 -5.74249 13.788545 -17.987244 -50.974464 7.995111 -45.517769 1.869918 0.060085 0.088373 -0.061651 -2.406201 1.980216 8.673727 3.558294 28.613333 57.939606 3.73514 34.158859 -0.10391 -0.063351 -0.092474 -0.011727 -50.828236 -2.776633 -3.053516 38.199215 -2.54703 5.370024 -6.109464 -0.556164 -0.612909 -0.068044 0.231012 0.070314 -47.046375 6.837399 8.014316 26.886604 6.752356 -7.244881 -3.132324 -0.084492 0.108531 0.027779 -0.042364 0.010033 
-0.023619 0.510918 -0.195953 20.683613 -0.154834 -0.120628 2.390175 -0.617899 -0.467927 -1.971048 0.555663 0.516356 -13.848298 2.683242 0.266312 1.7936 0.371528 0.571957 0.030842 -0.093353 -0.034501 -1.604256 -2.280018 -5.825028 14.017184 -19.173754 -48.885159 8.696914 -46.119335 1.832167 0.061564 0.089195 -0.068639 -2.225683 1.688447 8.89045 4.18096 30.099453 56.871166 4.450735 33.101215 -0.337317 -0.049252 -0.10369 -0.011966 -56.523178 -2.110585 -2.834961 41.440533 -2.35666 5.299646 -6.154825 -0.623776 -0.62529 -0.069718 0.241029 0.074076 -53.171284 6.402347 8.68504 31.311602 7.358964 -7.784218 -3.114253 -0.053038 0.084779 0.033767 -0.048019 0.006827 
-0.025646 0.508977 -0.200467 24.361275 0.375915 -0.475836 2.126298 -0.58522 -0.412839 -1.904304 0.552501 0.42279 -13.582273 2.409659 -0.114187 1.566257 0.361531 0.51787 0.029931 -0.086928 -0.033002 -1.409537 -1.993183 -5.971933 14.570739 -20.126678 -46.627464 9.327229 -46.880489 1.752266 0.060352 0.086276 -0.071942 -2.051909 1.384239 9.147007 5.263363 31.273294 55.613731 5.298207 32.36504 -0.569377 -0.037989 -0.11369 -0.012458 -62.376087 -1.299782 -2.600745 45.006794 -2.148543 5.22588 -6.2414 -0.698479 -0.644184 -0.075345 0.241103 0.077145 -59.551163 5.807086 9.247015 36.220364 7.848325 -8.332414 -3.121912 -0.019889 0.0699 0.03735 -0.050116 0.004333 
